<?xml version="1.0" standalone="no"?><!-- Generator: Gravit.io --><svg xmlns="http://www.w3.org/2000/svg" xmlns:xlink="http://www.w3.org/1999/xlink" style="isolation:isolate" viewBox="0 0 1024 1024" width="1024" height="1024"><defs><clipPath id="_clipPath_ENBlZvrwElC6ngRXeyjW7dAoZNLCAIwb"><rect width="1024" height="1024"/></clipPath></defs><g clip-path="url(#_clipPath_ENBlZvrwElC6ngRXeyjW7dAoZNLCAIwb)"><path d=" M 633.6 558.933 L 597.333 584.533 L 597.333 682.667 L 426.667 682.667 L 426.667 584.533 L 390.4 558.933 C 332.8 518.827 298.667 453.547 298.667 384 C 298.667 266.24 394.24 170.667 512 170.667 C 629.76 170.667 725.333 266.24 725.333 384 C 725.333 453.547 691.2 518.827 633.6 558.933 Z " fill="rgb(20,29,38)"/><path d=" M 384 896 C 384 919.467 403.2 938.667 426.667 938.667 L 597.333 938.667 C 620.8 938.667 640 919.467 640 896 L 640 853.333 L 384 853.333 L 384 896 Z  M 512 85.333 C 347.307 85.333 213.333 219.307 213.333 384 C 213.333 485.547 264.107 574.72 341.333 628.907 L 341.333 725.333 C 341.333 748.8 360.533 768 384 768 L 640 768 C 663.467 768 682.667 748.8 682.667 725.333 L 682.667 628.907 C 759.893 574.72 810.667 485.547 810.667 384 C 810.667 219.307 676.693 85.333 512 85.333 Z  M 633.6 558.933 L 597.333 584.533 L 597.333 682.667 L 426.667 682.667 L 426.667 584.533 L 390.4 558.933 C 332.8 518.827 298.667 453.547 298.667 384 C 298.667 266.24 394.24 170.667 512 170.667 C 629.76 170.667 725.333 266.24 725.333 384 C 725.333 453.547 691.2 518.827 633.6 558.933 Z " fill="rgb(36,52,71)"/></g></svg>